<svg xmlns="http://www.w3.org/2000/svg" width="19.202" height="24.958" viewBox="0 0 19.202 24.958"><path d="M10.2.457C5.07.457,0,3.877,0,9.413c0,3.52,1.98,5.521,3.18,5.521.5,0,.78-1.38.78-1.77,0-.465-1.185-1.455-1.185-3.39A6.758,6.758,0,0,1,9.8,2.9c3.405,0,5.926,1.935,5.926,5.491,0,2.655-1.065,7.636-4.515,7.636a2.22,2.22,0,0,1-2.31-2.19c0-1.89,1.32-3.72,1.32-5.671,0-3.31-4.7-2.71-4.7,1.29A5.875,5.875,0,0,0,6,11.993c-.69,2.97-2.1,7.4-2.1,10.456,0,.945.135,1.875.225,2.82.17.19.085.17.345.075,2.52-3.45,2.43-4.125,3.57-8.641a4.056,4.056,0,0,0,3.465,1.8c5.31,0,7.7-5.175,7.7-9.841C19.2,3.7,14.911.457,10.2.457Z" transform="translate(0 -0.457)"/></svg>