<svg xmlns="http://www.w3.org/2000/svg" width="28.161" height="23.212" viewBox="0 0 28.161 23.212"><path d="M25.266,9.166c.018.254.018.508.018.762,0,7.743-5.807,16.666-16.421,16.666A16.137,16.137,0,0,1,0,23.963a11.766,11.766,0,0,0,1.394.073,11.452,11.452,0,0,0,7.165-2.5,5.793,5.793,0,0,1-5.4-4.062,7.174,7.174,0,0,0,1.09.091,6.02,6.02,0,0,0,1.519-.2,5.837,5.837,0,0,1-4.628-5.749v-.073a5.748,5.748,0,0,0,2.609.743A5.924,5.924,0,0,1,1.966,4.451a16.327,16.327,0,0,0,11.9,6.129,6.707,6.707,0,0,1-.143-1.342,5.812,5.812,0,0,1,5.772-5.857,5.719,5.719,0,0,1,4.217,1.85,11.262,11.262,0,0,0,3.663-1.414,5.827,5.827,0,0,1-2.537,3.228,11.437,11.437,0,0,0,3.324-.907,12.509,12.509,0,0,1-2.895,3.028Z" transform="translate(0 -3.381)"/></svg>