<svg xmlns="http://www.w3.org/2000/svg" width="23.958" height="23.958" viewBox="0 0 23.958 23.958"><g transform="translate(-4.5 -4.5)"><path d="M21.47,6.5a5.006,5.006,0,0,1,4.991,4.991V21.47a5.006,5.006,0,0,1-4.991,4.991H11.488A5.006,5.006,0,0,1,6.5,21.47V11.488A5.006,5.006,0,0,1,11.488,6.5H21.47m0-2H11.488A7.008,7.008,0,0,0,4.5,11.488V21.47a7.008,7.008,0,0,0,6.988,6.988H21.47a7.008,7.008,0,0,0,6.988-6.988V11.488A7.008,7.008,0,0,0,21.47,4.5Z" transform="translate(0 0)"/><path d="M25.122,11.995a1.5,1.5,0,1,1,1.5-1.5A1.494,1.494,0,0,1,25.122,11.995Z" transform="translate(-2.155 -0.507)"/><path d="M17.239,13.246a3.993,3.993,0,1,1-3.993,3.993,4,4,0,0,1,3.993-3.993m0-2a5.989,5.989,0,1,0,5.989,5.989,5.991,5.991,0,0,0-5.989-5.989Z" transform="translate(-0.761 -0.761)"/></g></svg>